<?xml version="1.0" standalone="no"?>
<!DOCTYPE svg PUBLIC "-//W3C//DTD SVG 20010904//EN"
 "http://www.w3.org/TR/2001/REC-SVG-20010904/DTD/svg10.dtd">
<svg version="1.0" xmlns="http://www.w3.org/2000/svg"
 width="10pt" height="10pt" viewBox="0 0 300.000000 270.000000"
 preserveAspectRatio="xMidYMid meet">
<metadata>
Created by potrace 1.10, written by Peter Selinger 2001-2011
</metadata>
<g transform="translate(0.000000,270.000000) scale(0.100000,-0.100000)"
fill="#c10c0c" stroke="none">
<path d="M1267 2323 c-48 -153 -172 -548 -276 -878 l-188 -600 85 -3 c46 -2
86 -1 88 1 2 2 43 125 90 273 47 148 114 357 148 464 35 107 89 276 120 375
32 99 79 245 104 325 l47 145 179 5 180 5 32 83 32 82 -277 0 -278 0 -86 -277z"/>
<path d="M1507 2333 c-36 -112 -448 -1386 -513 -1583 -19 -57 -34 -108 -34
-112 0 -4 54 -8 119 -8 l120 0 39 127 c72 230 302 982 364 1187 33 111 64 209
69 219 9 15 27 17 168 17 l158 0 33 88 c18 48 35 93 37 100 4 9 -54 12 -270
12 l-275 0 -15 -47z"/>
<path d="M558 2106 c-99 -41 -151 -77 -238 -165 -136 -138 -185 -250 -184
-421 0 -88 4 -116 26 -172 54 -143 150 -261 284 -348 93 -60 147 -79 254 -86
l85 -6 47 158 c25 88 49 166 53 175 5 13 -3 18 -35 23 -129 21 -260 146 -260
250 0 90 63 177 168 228 61 30 75 33 179 36 l113 4 20 66 c10 37 33 112 50
167 16 55 30 103 30 108 0 4 -120 7 -267 7 -257 0 -270 -1 -325 -24z"/>
<path d="M1708 2108 c-3 -13 -65 -214 -137 -448 -73 -234 -195 -625 -271 -870
-76 -245 -148 -476 -160 -515 -12 -38 -26 -82 -30 -97 l-9 -28 237 0 237 0 49
163 c27 89 79 259 116 377 l66 215 275 6 c288 6 298 7 400 59 163 84 311 261
354 426 19 75 19 184 0 259 -50 190 -248 398 -434 455 -57 18 -93 20 -376 20
l-313 0 -4 -22z m482 -349 c123 -55 184 -196 141 -323 -19 -55 -82 -120 -144
-147 -39 -17 -77 -24 -150 -27 -54 -2 -103 0 -107 4 -7 7 100 376 145 502 7
18 64 14 115 -9z"/>
</g>
</svg>
